<svg xmlns="http://www.w3.org/2000/svg" viewBox="0 0 1440 320"><path fill="#0099ff" fill-opacity="1" d="M0,32L24,58.7C48,85,96,139,144,181.3C192,224,240,256,288,250.7C336,245,384,203,432,192C480,181,528,203,576,202.7C624,203,672,181,720,186.7C768,192,816,224,864,224C912,224,960,192,1008,186.7C1056,181,1104,203,1152,218.7C1200,235,1248,245,1296,218.7C1344,192,1392,128,1416,96L1440,64L1440,320L1416,320C1392,320,1344,320,1296,320C1248,320,1200,320,1152,320C1104,320,1056,320,1008,320C960,320,912,320,864,320C816,320,768,320,720,320C672,320,624,320,576,320C528,320,480,320,432,320C384,320,336,320,288,320C240,320,192,320,144,320C96,320,48,320,24,320L0,320Z"></path></svg>